<svg xmlns="http://www.w3.org/2000/svg" width="20.61" height="20.61" viewBox="0 0 20.61 20.61">
  <path id="user-circle-o" d="M10.3,0a10.076,10.076,0,0,1,4,.816A10.123,10.123,0,0,1,19.793,6.3,10.224,10.224,0,0,1,19.8,14.3a10.272,10.272,0,0,1-2.191,3.29,10.428,10.428,0,0,1-3.29,2.2,10.242,10.242,0,0,1-8.027.006,10.227,10.227,0,0,1-3.283-2.2A10.5,10.5,0,0,1,.817,14.3a10.2,10.2,0,0,1,0-8A10.123,10.123,0,0,1,6.3.816,10.076,10.076,0,0,1,10.3,0Zm7.119,15.538A8.7,8.7,0,0,0,19.137,10.3a8.6,8.6,0,0,0-.7-3.428,8.729,8.729,0,0,0-4.7-4.7,8.726,8.726,0,0,0-6.855,0,8.729,8.729,0,0,0-4.7,4.7,8.592,8.592,0,0,0-.7,3.428,8.7,8.7,0,0,0,1.713,5.233q.759-3.761,3.519-3.761a4.972,4.972,0,0,0,3.6,1.472,4.972,4.972,0,0,0,3.6-1.472q2.76,0,3.519,3.761ZM14.721,8.1a4.255,4.255,0,0,0-1.294-3.122A4.255,4.255,0,0,0,10.3,3.681,4.255,4.255,0,0,0,7.182,4.974,4.255,4.255,0,0,0,5.889,8.1a4.255,4.255,0,0,0,1.294,3.122A4.255,4.255,0,0,0,10.3,12.513a4.255,4.255,0,0,0,3.122-1.294A4.255,4.255,0,0,0,14.721,8.1Z"/>
</svg>
