<svg xmlns="http://www.w3.org/2000/svg" width="24.057" height="21.402" viewBox="0 0 24.057 21.402">
  <path id="_8150286_wishlist_save_save_for_later_shopping_ecommerce_icon" data-name="8150286_wishlist_save_save for later_shopping_ecommerce_icon" d="M26.053,6.928a7.233,7.233,0,0,0-6.007-3.117A6.48,6.48,0,0,0,15.16,5.895a6.5,6.5,0,0,0-4.886-2.084A7.233,7.233,0,0,0,4.267,6.928a7.39,7.39,0,0,0-.315,7.32,18.686,18.686,0,0,0,3.66,5.411A41.05,41.05,0,0,0,13.269,24.6a3.222,3.222,0,0,0,3.783,0,40.91,40.91,0,0,0,5.657-4.939,18.686,18.686,0,0,0,3.66-5.411A7.39,7.39,0,0,0,26.053,6.928ZM24.9,13.635a17.513,17.513,0,0,1-3.362,4.939A39.789,39.789,0,0,1,16.106,23.3a1.576,1.576,0,0,1-1.891,0,39.929,39.929,0,0,1-5.429-4.728,17.075,17.075,0,0,1-3.362-4.939A5.919,5.919,0,0,1,5.6,7.8a5.622,5.622,0,0,1,4.676-2.382A4.9,4.9,0,0,1,14.2,7.173a1.419,1.419,0,0,0,1.961,0,4.9,4.9,0,0,1,3.888-1.751A5.622,5.622,0,0,1,24.722,7.8,5.919,5.919,0,0,1,24.9,13.635Z" transform="translate(-3.132 -3.809)"/>
</svg>
